<?xml version="1.0" encoding="utf-8"?>
<!-- Generator: Adobe Illustrator 22.1.0, SVG Export Plug-In . SVG Version: 6.00 Build 0)  -->
<svg version="1.1" id="Warstwa_1" xmlns="http://www.w3.org/2000/svg" xmlns:xlink="http://www.w3.org/1999/xlink" x="0px" y="0px"
	 viewBox="0 0 260 110" style="enable-background:new 0 0 260 110;" xml:space="preserve">
<style type="text/css">
	.st0{fill:#FFFFFF;}
</style>
<g>
	<path class="st0" d="M178.8,54.6c-2.4,0-4.8,0.8-6.5,2.1c-0.7,0.5-1.3,1.1-1.9,1.7c-0.2,0.2-0.6,0.2-0.7,0c-2-2.3-5.1-3.8-8.5-3.8
		c-3.5,0-5.8,1.5-6.6,2.1c-0.2,0.1-0.6,0.1-0.7-0.1c-0.8-1.3-2.2-2-3.9-2c-2.4,0.1-4.3,2.1-4.3,4.3v25c0,2.3,1.9,4.3,4.3,4.3
		c2,0,3.8-1.2,4.3-3c0.1-0.4,0.2-0.8,0.2-1.3V73.5V66c0-2.2,1.8-4.2,4.1-4.3c2.5-0.2,4.8,1.8,4.8,4.2v1.3v6.3v10.4
		c0,2.2,1.8,4.2,4.1,4.3c2.5,0.2,4.8-1.8,4.8-4.2V73.5v-6.3V66c0-2.2,1.8-4.2,4.1-4.3c2.5-0.2,4.8,1.8,4.8,4.2v1.3v6.3v10.4
		c0,2.2,1.8,4.2,4.1,4.3c2.5,0.2,4.8-1.8,4.8-4.2V67.2v-1.9C189.9,59.6,184.9,54.6,178.8,54.6z"/>
	<path class="st0" d="M123.6,55.7c-7.3,0-13.3,5.7-13.3,12.6v8.4c0,7,6,12.6,13.3,12.6c7.3,0,13.3-5.7,13.3-12.6v-8.4
		C136.8,61.4,130.9,55.7,123.6,55.7z M123.6,81c-2.4,0-4.4-1.9-4.4-4.2v-8.4c0-2.3,2-4.2,4.4-4.2c2.4,0,4.4,1.9,4.4,4.2v8.4
		C128,79.1,126,81,123.6,81z"/>
	<path class="st0" d="M94.8,63.7c0.8,0,1.5,0.2,2.2,0.5c2.1,1.2,4.9,0.5,6.1-1.6c1.2-2,0.6-4.6-1.7-5.8c-2-1.2-4.3-1.7-6.6-1.7
		c-7.3,0-13.3,5.7-13.3,12.6v8.4c0,7,6,12.6,13.3,12.6c2.3,0,4.6-0.6,6.6-1.7c2.1-1.2,2.9-3.8,1.7-5.8c-1.2-2-4-2.7-6.1-1.6
		c-0.7,0.4-1.4,0.5-2.2,0.5c-2.4,0-4.4-1.9-4.4-4.2v-8.4C90.4,65.6,92.4,63.7,94.8,63.7z"/>
	<g>
		<path class="st0" d="M228.6,4.2c-2.4,0-4.4,1.9-4.4,4.2v21.1c0,2.3,2,4.2,4.4,4.2c2.4,0,4.4-1.9,4.4-4.2V8.4
			C233.1,6.1,231.1,4.2,228.6,4.2z"/>
		<path class="st0" d="M228.6,42.1c-2.4,0-4.4,1.9-4.4,4.2v21.1c0,2.3,2,4.2,4.4,4.2c2.4,0,4.4-1.9,4.4-4.2V46.3
			C233.1,44,231.1,42.1,228.6,42.1z"/>
		<path class="st0" d="M246.3,12.6c-2.4,0-4.4,1.9-4.4,4.2v42.6c0,2.3,2,4.2,4.4,4.2c2.4,0,4.4-1.9,4.4-4.2V16.8
			C250.8,14.5,248.8,12.6,246.3,12.6z"/>
		<path class="st0" d="M210.9,12.6c-2.4,0-4.4,1.9-4.4,4.2v42.6c0,2.3,2,4.2,4.4,4.2s4.4-1.9,4.4-4.2V16.8
			C215.4,14.5,213.4,12.6,210.9,12.6z"/>
	</g>
	<path class="st0" d="M26.1,54.5c-2.1,0-4.2,0.6-5.9,1.7c-0.3,0.1-0.7-0.1-0.7-0.4V42c0-2.2-1.8-4.2-4.1-4.3
		c-2.5-0.2-4.8,1.8-4.8,4.2v42c0,2.2,1.8,4.2,4.1,4.3c2.5,0.2,4.8-1.8,4.8-4.2V73.5V66c0-2.2,1.8-4.2,4.1-4.3
		c2.5-0.2,4.8,1.8,4.8,4.2v1.3v6.3v10.4c0,2.2,1.8,4.2,4.1,4.3c2.5,0.2,4.8-1.8,4.8-4.2V67.2v-1.9C37.3,59.5,32.3,54.4,26.1,54.5z"
		/>
	<path class="st0" d="M67.9,55.8c-2.3,0.1-4.1,2.1-4.1,4.3v16.8V78c0,2.2-1.8,4.2-4.1,4.3c-2.5,0.2-4.8-1.8-4.8-4.2v-1.3v-6.3V60.1
		c0-2.2-1.8-4.2-4.1-4.3c-2.5-0.2-4.8,1.8-4.8,4.2v16.9v1.9c0,5.9,5,10.9,11.2,10.7c2.1,0,4.2-0.6,5.9-1.7c0.3-0.2,0.7,0,0.7,0.3
		v5.4c0,2.2-2,4.3-4.3,4.3c-0.8,0-1.5-0.2-2.3-0.5c-1.5-0.8-3.5-0.8-5,0.3c-2.7,2-2.1,5.6,0.4,7.1c2.1,1.2,4.4,1.3,6.7,1.3
		c7.4-0.1,13.3-5.7,13.3-12.5V76.8V59.9C72.7,57.5,70.6,55.6,67.9,55.8z"/>
</g>
</svg>
